<svg width="90" height="90" viewBox="0 0 90 90" fill="none" xmlns="http://www.w3.org/2000/svg">
<path fill-rule="evenodd" clip-rule="evenodd" d="M45 15C39.7529 14.999 34.5972 16.3743 30.0477 18.9886C25.4982 21.6029 21.7139 25.3647 19.0726 29.8986C16.4313 34.4325 15.0253 39.5798 14.995 44.8269C14.9648 50.0739 16.3112 55.2372 18.9 59.8012C20.6498 57.5272 22.8992 55.6859 25.4741 54.4199C28.0491 53.1539 30.8807 52.497 33.75 52.5H56.25C59.1194 52.497 61.951 53.1539 64.526 54.4199C67.1009 55.6859 69.3502 57.5272 71.1 59.8012C73.6888 55.2372 75.0353 50.0739 75.005 44.8269C74.9748 39.5798 73.5688 34.4325 70.9275 29.8986C68.2862 25.3647 64.5019 21.6029 59.9524 18.9886C55.4028 16.3743 50.2472 14.999 45 15ZM74.7863 67.785C75.2563 67.1725 75.7063 66.545 76.1363 65.9025C80.2937 59.7251 82.5098 52.4461 82.5 45C82.5 24.2888 65.7113 7.5 45 7.5C24.2888 7.5 7.50004 24.2888 7.50004 45C7.48822 53.2378 10.2002 61.2485 15.2138 67.785L15.195 67.8525L16.5263 69.4012C20.0434 73.5132 24.4102 76.8135 29.3259 79.0749C34.2416 81.3363 39.5892 82.5048 45 82.5C45.81 82.5 46.615 82.475 47.415 82.425C54.1815 81.9983 60.7038 79.736 66.2813 75.8813C68.9487 74.0411 71.3663 71.8629 73.4738 69.4012L74.805 67.8525L74.7863 67.785ZM45 22.5C42.0163 22.5 39.1549 23.6853 37.0451 25.795C34.9353 27.9048 33.75 30.7663 33.75 33.75C33.75 36.7337 34.9353 39.5952 37.0451 41.705C39.1549 43.8147 42.0163 45 45 45C47.9837 45 50.8452 43.8147 52.955 41.705C55.0648 39.5952 56.25 36.7337 56.25 33.75C56.25 30.7663 55.0648 27.9048 52.955 25.795C50.8452 23.6853 47.9837 22.5 45 22.5Z" fill="#323232"/>
</svg>
